<svg xmlns="http://www.w3.org/2000/svg" viewBox="0 0 410 404" aria-hidden="true">
  <path
    fill="#41D1FF"
    d="M399.641 59.525L215.643 388.545c-3.243 5.79-11.548 5.824-14.84.061L10.55 59.592c-3.583-6.201 1.707-13.726 8.662-12.324l184.91 37.29a8.46 8.46 0 003.34 0l183.33-37.223c6.944-1.41 12.246 6.096 8.85 12.19z"
  />
  <path
    fill="#BD34FE"
    d="M292.965.015L156.413 26.79a4.22 4.22 0 00-3.404 3.498l-8.405 142.088a4.22 4.22 0 005.138 4.39l38.013-8.777a4.22 4.22 0 015.07 4.976l-11.292 55.276a4.22 4.22 0 005.206 4.945l23.478-7.24a4.22 4.22 0 015.342 5.18l-17.942 86.255c-1.123 5.399 6.054 8.343 9.01 3.697L207 319.02l111.11-221.807c2.329-4.647-1.69-10.043-6.814-9.14l-39.078 6.887a4.22 4.22 0 01-4.824-5.166l25.497-88.29a4.22 4.22 0 00-4.926-5.49z"
  />
</svg>
